<svg xmlns="http://www.w3.org/2000/svg" viewBox="0.0027794530615210533 -0.0033265547826886177 718.2471923828125 718.2886962890625" height="134" width="133.99224800441576" y="220.5" x="88.90054374363115" preserveAspectRatio="xMinYMin" style="overflow: visible;"><path id="Livello-2" class="cls-1" d="M44.25,420.09a3.9,3.9,0,0,1-.44-7.77l87.54-10.06L192,345.91,88,329.14a3.9,3.9,0,1,1,1.24-7.7l111.91,18a3.9,3.9,0,0,1,2,6.71l-67.47,62.66a3.86,3.86,0,0,1-2.2,1L44.7,420.07A3.39,3.39,0,0,1,44.25,420.09Z" style="fill: #b5c4c9;"></path><path id="Livello-2" class="cls-1" d="M492,242.83a3.89,3.89,0,0,1-3.21-6.11L602,72a3.9,3.9,0,1,1,6.43,4.42L495.17,241.14A3.88,3.88,0,0,1,492,242.83Z" style="fill: #b5c4c9;"></path><path id="Livello-2" class="cls-2" d="M577.49,74.18a27.69,27.69,0,1,1,27.68,27.68,27.68,27.68,0,0,1-27.68-27.68" style="fill: #41c0f0;"></path><path id="Livello-2" class="cls-3" d="M24.74,416.19a19.52,19.52,0,1,1,19.51,19.52,19.5,19.5,0,0,1-19.51-19.52" style="fill: #e62d5b;"></path><path id="Livello-2" class="cls-4" d="M69.1,325.29a19.52,19.52,0,1,1,19.52,19.52A19.52,19.52,0,0,1,69.1,325.29" style="fill: #61c659;"></path><path id="Livello-2" class="cls-2" d="M113.55,406a19.52,19.52,0,1,1,19.52,19.52A19.52,19.52,0,0,1,113.55,406" style="fill: #41c0f0;"></path><path id="Livello-2" class="cls-1" d="M702.18,306a3.91,3.91,0,0,0-5.27-1.64L585,363.27l-39.87-27.78a3.9,3.9,0,1,0-4.46,6.39l95.62,66.65a3.9,3.9,0,1,0,4.46-6.4L592.25,368.3l108.29-57A3.91,3.91,0,0,0,702.18,306Z" style="fill: #b5c4c9;"></path><path id="Livello-2" class="cls-4" d="M619,405.33a19.52,19.52,0,1,1,19.52,19.51A19.52,19.52,0,0,1,619,405.33" style="fill: #61c659;"></path><path id="Livello-2" class="cls-3" d="M679.21,307.85a19.52,19.52,0,1,1,19.52,19.52,19.51,19.51,0,0,1-19.52-19.52" style="fill: #e62d5b;"></path><path id="Livello-2" class="cls-1" d="M318.31,284.47a3.17,3.17,0,0,1-.44,0,3.91,3.91,0,0,1-3.14-2.31L204.79,30.39a3.9,3.9,0,1,1,7.14-3.12L319.18,272.83l72.11-97.46a3.9,3.9,0,0,1,6.27,4.64L321.44,282.89A3.9,3.9,0,0,1,318.31,284.47Z" style="fill: #b5c4c9;"></path><path id="Livello-2" class="cls-2" d="M188.84,28.83a19.52,19.52,0,1,1,19.52,19.52,19.52,19.52,0,0,1-19.52-19.52" style="fill: #41c0f0;"></path><path id="Livello-2" class="cls-4" d="M374.91,177.69a19.52,19.52,0,1,1,19.52,19.52,19.52,19.52,0,0,1-19.52-19.52" style="fill: #61c659;"></path><path id="Livello_1-2" dataName="Livello 1" class="cls-5" d="M542.94,437.19V338.68H200v98.51a58.87,58.87,0,0,0,0,117.73h.67a171.45,171.45,0,0,0,170.78,156.4h0a171.45,171.45,0,0,0,170.78-156.4h.67a58.87,58.87,0,1,0,0-117.73Z" style="fill: #fff;"></path><path id="Livello_1-2" dataName="Livello 1" class="cls-6" d="M386,583.84H365.57a6.86,6.86,0,0,1-6.86-6.85V533.33a6.86,6.86,0,0,1,13.72,0v36.8H386a6.86,6.86,0,1,1,0,13.71Z" style="fill: #000a1b;"></path><path id="Livello_1-2" dataName="Livello 1" class="cls-2" d="M239.58,483.65a57,57,0,1,1,57,57,57,57,0,0,1-57-57" style="fill: #41c0f0;"></path><path id="Livello_1-2" dataName="Livello 1" class="cls-2" d="M503.4,483.65a57,57,0,1,0-57,57,57,57,0,0,0,57-57" style="fill: #41c0f0;"></path><path id="Livello_1-2" dataName="Livello 1" d="M549.8,430.69v-92a6.86,6.86,0,0,0-6.86-6.85H200a6.85,6.85,0,0,0-6.85,6.85v92a65.73,65.73,0,0,0,1.32,130.86,178.31,178.31,0,0,0,354,0,65.73,65.73,0,0,0,1.32-130.86ZM206.9,345.54H536.08V456.41H504.14a63.86,63.86,0,0,0-115.54,0H354.38a63.86,63.86,0,0,0-115.54,0H206.9V345.54Zm239.47,87.94a50.17,50.17,0,1,1-50.16,50.17A50.23,50.23,0,0,1,446.37,433.48Zm-149.76,0a50.17,50.17,0,1,1-50.17,50.17A50.23,50.23,0,0,1,296.61,433.48ZM542.94,548.07h-.67a6.85,6.85,0,0,0-6.83,6.26,164.59,164.59,0,0,1-327.9,0,6.85,6.85,0,0,0-6.83-6.26H200a52,52,0,0,1-6.85-103.56v34.63a6.86,6.86,0,1,0,13.71,0v-9h27.28a63.88,63.88,0,1,0,126.31,13.52A64.07,64.07,0,0,0,359,470.13H384a63.89,63.89,0,1,0,124.85,0h27.28v9a6.86,6.86,0,1,0,13.71,0V444.51a52,52,0,0,1-6.85,103.56Z" style=""></path><path id="Livello_1-2" dataName="Livello 1" class="cls-6" d="M470.08,499.38a8.44,8.44,0,0,1-8.44-8.44,15.27,15.27,0,0,0-30.53,0,8.44,8.44,0,0,1-16.88,0,32.15,32.15,0,1,1,64.29,0A8.44,8.44,0,0,1,470.08,499.38Z" style="fill: #000a1b;"></path><path id="Livello_1-2" dataName="Livello 1" class="cls-6" d="M318.4,499.38a8.44,8.44,0,0,1-8.44-8.44,15.27,15.27,0,0,0-30.53,0,8.44,8.44,0,0,1-16.88,0,32.15,32.15,0,1,1,64.29,0A8.44,8.44,0,0,1,318.4,499.38Z" style="fill: #000a1b;"></path><path id="Livello_1-2" dataName="Livello 1" class="cls-2" d="M306,606.65s3.1,59.83,67.16,59.83,67.16-59.83,67.16-59.83Z" style="fill: #41c0f0;"></path><path id="Livello_1-2" dataName="Livello 1" d="M373.11,673.34c-36.34,0-54.6-18.11-63.52-33.31a79.77,79.77,0,0,1-10.49-33,6.84,6.84,0,0,1,6.85-7.21H440.27a6.86,6.86,0,0,1,6.85,7.21,80,80,0,0,1-10.5,33C427.7,655.23,409.44,673.34,373.11,673.34ZM313.85,613.5c3.08,14.63,14.86,46.12,59.26,46.12s56.17-31.49,59.25-46.12Z" style=""></path><path id="Livello_1-2" dataName="Livello 1" class="cls-6" d="M373.11,673.34c-36.34,0-54.6-18.11-63.52-33.31a79.77,79.77,0,0,1-10.49-33,6.84,6.84,0,0,1,6.85-7.21H440.27a6.86,6.86,0,0,1,6.85,7.21,80,80,0,0,1-10.5,33C427.7,655.23,409.44,673.34,373.11,673.34ZM313.85,613.5c3.08,14.63,14.86,46.12,59.26,46.12s56.17-31.49,59.25-46.12Z" style="fill: #000a1b;"></path><path id="Livello_1-2" dataName="Livello 1" class="cls-3" d="M374.72,630.2h-3.23a32.08,32.08,0,0,0-31.94,29.11c8.73,4.37,19.72,7.17,33.56,7.17s24.82-2.8,33.55-7.17A32.07,32.07,0,0,0,374.72,630.2Z" style="fill: #e62d5b;"></path><path id="Livello_1-2" dataName="Livello 1" d="M373.11,673.34c-13.85,0-26.18-2.66-36.63-7.9a6.89,6.89,0,0,1-3.76-6.76,38.74,38.74,0,0,1,38.77-35.34h3.23a38.73,38.73,0,0,1,38.77,35.34,6.86,6.86,0,0,1-3.76,6.76C399.28,670.68,387,673.34,373.11,673.34Zm-25.85-18.11a78.27,78.27,0,0,0,51.69,0,25.08,25.08,0,0,0-24.23-18.17h-3.23A25.08,25.08,0,0,0,347.26,655.23Z" style=""></path><path id="Livello_1-2" dataName="Livello 1" class="cls-1" d="M200,338.68c0-33.75,76.76-61.11,171.45-61.11s171.45,27.36,171.45,61.11S466.18,399.8,371.49,399.8,200,372.43,200,338.68" style="fill: #b5c4c9;"></path><path id="Livello_1-2" dataName="Livello 1" class="cls-6" d="M371.49,406.65c-46.56,0-90.43-6.49-123.53-18.29-35.32-12.59-54.78-30.23-54.78-49.68S212.64,301.6,248,289c33.1-11.8,77-18.29,123.53-18.29S461.92,277.21,495,289c35.32,12.59,54.78,30.23,54.78,49.67S530.34,375.77,495,388.36C461.92,400.16,418.05,406.65,371.49,406.65Zm0-122.22c-45,0-87.27,6.22-118.93,17.5C224,312.12,206.9,325.86,206.9,338.68s17.07,26.57,45.66,36.76c31.66,11.28,73.9,17.5,118.93,17.5s87.27-6.22,118.93-17.5c28.59-10.19,45.66-23.93,45.66-36.76S519,312.12,490.42,301.93C458.76,290.65,416.52,284.43,371.49,284.43Z" style="fill: #000a1b;"></path><path id="Livello_1-2" dataName="Livello 1" class="cls-1" d="M419.52,124A32.72,32.72,0,1,1,450.6,95.2,32.72,32.72,0,0,1,419.52,124M481,93.71a63,63,0,0,0-1.56-16.57L499,66.79,483.57,37.51,463.7,48A62.76,62.76,0,0,0,437,31.3l.89-23.18L404.77,6.86,403.88,30a62.78,62.78,0,0,0-27.51,14.24l-19.9-12.52-17.64,28L358.25,72a62.78,62.78,0,0,0-3,16.9,63.42,63.42,0,0,0,1.13,14.52l-20.15,10.63,15.45,29.29,19.43-10.25A62.88,62.88,0,0,0,398.23,151l-.83,21.75L430.48,174l.81-21.18a62.77,62.77,0,0,0,29.33-15.15l18.17,11.43,17.64-28-18.15-11.42A63,63,0,0,0,481,93.71" style="fill: #b5c4c9;"></path><path id="Livello_1-2" dataName="Livello 1" class="cls-6" d="M430.49,180.84h-.27l-33.09-1.27a6.85,6.85,0,0,1-6.59-7.11l.65-16.81a69.81,69.81,0,0,1-21.43-14.09l-14.87,7.84a6.86,6.86,0,0,1-9.27-2.86l-15.45-29.29A6.87,6.87,0,0,1,333,108l15.82-8.34a69.12,69.12,0,0,1,1.41-24.56l-15.09-9.5A6.86,6.86,0,0,1,333,56.12l17.64-28A6.83,6.83,0,0,1,360.12,26l15.71,9.89a69.76,69.76,0,0,1,21.39-11.09l.7-18.16A6.87,6.87,0,0,1,405,0l33.09,1.27a6.85,6.85,0,0,1,6.59,7.12L444,26.54a69.87,69.87,0,0,1,20.89,13.05l15.46-8.15a6.83,6.83,0,0,1,9.26,2.87l15.45,29.28a6.86,6.86,0,0,1-2.86,9.27l-15.14,8A70.38,70.38,0,0,1,487.82,94h0a70.58,70.58,0,0,1-1.63,12.55l13.89,8.75a6.85,6.85,0,0,1,2.15,9.45l-17.64,28a6.86,6.86,0,0,1-9.46,2.15l-13.91-8.76A69.88,69.88,0,0,1,438,158.19l-.61,16.06a6.84,6.84,0,0,1-6.85,6.59Zm-26-14.71,19.38.74.55-14.32a6.85,6.85,0,0,1,5.42-6.44A56,56,0,0,0,456,132.6a6.85,6.85,0,0,1,8.29-.75l12.37,7.79L487,123.22l-12.34-7.77a6.86,6.86,0,0,1-2.91-7.8,56.12,56.12,0,0,0,1-29,6.84,6.84,0,0,1,3.49-7.6l13.55-7.15L480.7,46.77l-13.8,7.28a6.84,6.84,0,0,1-8.17-1.34,56.13,56.13,0,0,0-23.81-14.87,6.85,6.85,0,0,1-4.8-6.8l.62-16.33L411.36,14l-.62,16.32a6.84,6.84,0,0,1-5.31,6.42A56.26,56.26,0,0,0,380.92,49.4a6.86,6.86,0,0,1-8.21.68l-14.09-8.87L348.29,57.62l13.61,8.57a6.87,6.87,0,0,1,2.88,7.91,55.75,55.75,0,0,0-2.67,15.06,56.42,56.42,0,0,0,1,12.94,6.84,6.84,0,0,1-3.53,7.38l-14.09,7.44,9.05,17.15,13.37-7a6.87,6.87,0,0,1,8.33,1.51,56.17,56.17,0,0,0,24.14,15.94,6.84,6.84,0,0,1,4.69,6.76ZM481,93.71h0Zm-62.79,37.17a39.42,39.42,0,1,1,1.62,0h0Q419,130.88,418.17,130.88Zm1.35-6.89h0Zm-1.47-58.55-1.07,0a25.86,25.86,0,0,0,2.26,51.68h0a25.86,25.86,0,0,0-1.19-51.7Z" style="fill: #000a1b;"></path><rect id="Livello_1-2" dataName="Livello 1" class="cls-5" x="25.97" y="106.96" width="277.83" height="183.11" transform="matrix(0.97, -0.26, 0.26, 0.97, -46.19, 50.05)" style="fill: #fff;"></rect><path id="Livello_1-2" dataName="Livello 1" class="cls-7" d="M188.84,290.33a3.45,3.45,0,0,1-3.33-2.55L137.6,111.05a3.46,3.46,0,0,1,6.67-1.81L192.18,286a3.46,3.46,0,0,1-2.43,4.24A3.61,3.61,0,0,1,188.84,290.33Z" style="fill: #e4e7ea;"></path><path id="Livello_1-2" dataName="Livello 1" class="cls-7" d="M139.44,303.72a3.45,3.45,0,0,1-3.33-2.55L88.2,124.44a3.46,3.46,0,1,1,6.67-1.81l47.91,176.73a3.46,3.46,0,0,1-2.43,4.24A3.61,3.61,0,0,1,139.44,303.72Z" style="fill: #e4e7ea;"></path><path id="Livello_1-2" dataName="Livello 1" class="cls-7" d="M90,317.11a3.45,3.45,0,0,1-3.33-2.55L38.8,137.83A3.46,3.46,0,1,1,45.47,136L93.38,312.76A3.45,3.45,0,0,1,91,317,3.21,3.21,0,0,1,90,317.11Z" style="fill: #e4e7ea;"></path><path id="Livello_1-2" dataName="Livello 1" class="cls-7" d="M238.24,276.94a3.45,3.45,0,0,1-3.33-2.55L187,97.66a3.46,3.46,0,1,1,6.67-1.81l47.91,176.73a3.46,3.46,0,0,1-2.43,4.24A3.61,3.61,0,0,1,238.24,276.94Z" style="fill: #e4e7ea;"></path><path id="Livello_1-2" dataName="Livello 1" class="cls-7" d="M287.64,263.55a3.45,3.45,0,0,1-3.33-2.55L236.4,84.27a3.46,3.46,0,1,1,6.67-1.81L291,259.19a3.46,3.46,0,0,1-2.43,4.24A3.61,3.61,0,0,1,287.64,263.55Z" style="fill: #e4e7ea;"></path><path id="Livello_1-2" dataName="Livello 1" class="cls-7" d="M16.49,177.11a3.46,3.46,0,0,1-.9-6.79L281.5,98.24a3.45,3.45,0,0,1,1.8,6.67L17.39,177A3.11,3.11,0,0,1,16.49,177.11Z" style="fill: #e4e7ea;"></path><path id="Livello_1-2" dataName="Livello 1" class="cls-7" d="M29.88,226.51a3.46,3.46,0,0,1-.9-6.79l265.91-72.08a3.45,3.45,0,0,1,1.8,6.66L30.78,226.38A3.11,3.11,0,0,1,29.88,226.51Z" style="fill: #e4e7ea;"></path><path id="Livello_1-2" dataName="Livello 1" class="cls-7" d="M43.27,275.91a3.46,3.46,0,0,1-.9-6.8L308.28,197a3.45,3.45,0,1,1,1.8,6.67L44.17,275.78A3.11,3.11,0,0,1,43.27,275.91Z" style="fill: #e4e7ea;"></path><rect id="Livello_1-2" dataName="Livello 1" class="cls-4" x="150.07" y="150.77" width="41.3" height="138.51" transform="translate(-51.62 52.33) rotate(-15.17)" style="fill: #61c659;"></rect><rect id="Livello_1-2" dataName="Livello 1" class="cls-3" x="230.75" y="164.87" width="41.3" height="103.19" transform="translate(-47.88 73.31) rotate(-15.17)" style="fill: #e62d5b;"></rect><rect id="Livello_1-2" dataName="Livello 1" class="cls-2" x="81.69" y="228.98" width="41.3" height="79.91" transform="translate(-66.79 36.14) rotate(-15.17)" style="fill: #41c0f0;"></rect><path id="Livello_1-2" dataName="Livello 1" d="M329.54,248.74,281.63,72a6.85,6.85,0,0,0-8.41-4.83L5.07,139.87a6.86,6.86,0,0,0-4.83,8.41L48.15,325a6.85,6.85,0,0,0,8.41,4.83l38.08-10.32h0l39.86-10.8h0l36.16-9.8h0l39.86-10.81h0l36.16-9.8h0l39.86-10.8h0l38.07-10.32a6.86,6.86,0,0,0,4.83-8.41ZM97.68,304.48,80.37,240.59,107,233.38l17.32,63.88Zm76.06-20.61L141.09,163.41l26.62-7.21,32.65,120.45Zm76-20.62-23.41-86.36L253,169.67,276.41,256Zm39.86-10.8-25.2-93a6.86,6.86,0,0,0-8.42-4.83l-39.86,10.81a6.85,6.85,0,0,0-4.82,8.41l25.2,93-23,6.22L179.15,146a6.85,6.85,0,0,0-8.41-4.82L130.88,152a6.84,6.84,0,0,0-4.82,8.41L160.5,287.45l-23,6.23-19.11-70.51a6.85,6.85,0,0,0-8.41-4.82l-39.86,10.8a6.85,6.85,0,0,0-4.82,8.41l19.11,70.51-24.86,6.74L15.27,151.31l254.92-69.1,44.32,163.5Z" style=""></path><path id="Livello_1-2" dataName="Livello 1" class="cls-6" d="M371.49,406.65c-46.56,0-90.43-6.49-123.53-18.29-35.32-12.59-54.78-30.23-54.78-49.68S212.64,301.6,248,289c33.1-11.8,77-18.29,123.53-18.29S461.92,277.21,495,289c35.32,12.59,54.78,30.23,54.78,49.67S530.34,375.77,495,388.36C461.92,400.16,418.05,406.65,371.49,406.65Zm0-122.22c-45,0-87.27,6.22-118.93,17.5C224,312.12,206.9,325.86,206.9,338.68s17.07,26.57,45.66,36.76c31.66,11.28,73.9,17.5,118.93,17.5s87.27-6.22,118.93-17.5c28.59-10.19,45.66-23.93,45.66-36.76S519,312.12,490.42,301.93C458.76,290.65,416.52,284.43,371.49,284.43Z" style="fill: #000a1b;"></path><path id="Livello_1-2" dataName="Livello 1" class="cls-3" d="M528.71,167.84A84.09,84.09,0,1,0,614,286.62l-82.29-34.54Z" style="fill: #e62d5b;"></path><path id="Livello_1-2" dataName="Livello 1" d="M537.54,342.41A90.95,90.95,0,0,1,528,161a6.86,6.86,0,0,1,7.58,6.57l2.84,79.87,78.25,32.84a6.85,6.85,0,0,1,3.57,9.2,91.48,91.48,0,0,1-73,52.4A93,93,0,0,1,537.54,342.41Zm-15.4-166.63A77.24,77.24,0,0,0,537.55,328.7a78.78,78.78,0,0,0,8.22-.44,77.73,77.73,0,0,0,58.73-38.19l-75.44-31.66a6.88,6.88,0,0,1-4.2-6.08Z" style=""></path><path id="Livello_1-2" dataName="Livello 1" class="cls-4" d="M551,135.31l3.21,85.21,73.9-50.67A84,84,0,0,0,551,135.31Z" style="fill: #61c659;"></path><path id="Livello_1-2" dataName="Livello 1" d="M554.24,227.38a6.85,6.85,0,0,1-6.85-6.6l-3.21-85.21a6.86,6.86,0,0,1,6.13-7.08,91.23,91.23,0,0,1,83.39,37.35,6.87,6.87,0,0,1-1.68,9.67l-73.9,50.67A6.91,6.91,0,0,1,554.24,227.38Zm3.9-85.66,2.49,66.11,57.57-39.48A77.55,77.55,0,0,0,558.14,141.72Z" style=""></path><path id="Livello_1-2" dataName="Livello 1" class="cls-2" d="M566,242.66,648,276.24A83.93,83.93,0,0,0,639.84,192Z" style="fill: #41c0f0;"></path><path id="Livello_1-2" dataName="Livello 1" d="M648,283.1a7,7,0,0,1-2.6-.51L563.35,249a6.86,6.86,0,0,1-1.28-12L636,186.33a6.88,6.88,0,0,1,9.45,1.65,90.87,90.87,0,0,1,13.82,77.64,92.4,92.4,0,0,1-5,13.49A6.87,6.87,0,0,1,648,283.1Zm-67.72-42,64,26.18c.65-1.78,1.22-3.58,1.73-5.39A77.13,77.13,0,0,0,638,201.59Z" style=""></path><path id="Livello_1-2" dataName="Livello 1" class="cls-2" d="M424.62,313.62a97.71,97.71,0,1,0-164.13,71.64c29.91,9.06,68.66,14.53,111,14.53H373a97.67,97.67,0,0,0,51.64-86.17" style="fill: #41c0f0;"></path><path id="Livello_1-2" dataName="Livello 1" d="M373,406.65h-1.49c-41.3,0-81.43-5.27-113-14.83a6.83,6.83,0,0,1-2.67-1.54,104.54,104.54,0,1,1,120.39,15.56A6.92,6.92,0,0,1,373,406.65Zm-109-27.5c30,8.88,68,13.76,107.2,13.79A90.88,90.88,0,1,0,264,379.15Z" style=""></path><path id="Livello_1-2" dataName="Livello 1" class="cls-5" d="M315.31,365.26a6.86,6.86,0,0,1-6.64-8.59L332.77,264a6.86,6.86,0,0,1,13.28,3.45l-24.11,92.68A6.86,6.86,0,0,1,315.31,365.26Z" style="fill: #fff;"></path><path id="Livello_1-2" dataName="Livello 1" class="cls-5" d="M297.9,345a6.79,6.79,0,0,1-4.43-1.63c-8.18-6.92-30.49-24.33-30.72-24.51a6.87,6.87,0,0,1,.71-11.3c13.37-8,32.86-23,33.05-23.18a6.86,6.86,0,0,1,8.4,10.85c-.67.52-13.66,10.56-26.07,18.82,7.37,5.8,18.15,14.34,23.49,18.86A6.85,6.85,0,0,1,297.9,345Z" style="fill: #fff;"></path><path id="Livello_1-2" dataName="Livello 1" class="cls-5" d="M357.06,345a6.86,6.86,0,0,1-4.44-12.09c5.34-4.52,16.12-13.06,23.5-18.86-12.41-8.26-25.41-18.3-26.07-18.82a6.86,6.86,0,0,1,8.39-10.85c.2.16,19.69,15.22,33.06,23.18a6.86,6.86,0,0,1,.7,11.3c-.22.18-22.53,17.59-30.72,24.51A6.76,6.76,0,0,1,357.06,345Z" style="fill: #fff;"></path></svg>